<svg xmlns="http://www.w3.org/2000/svg" viewBox="0 0 888.15 265"><defs><style>.cls-1,.cls-3{fill:#fff;}.cls-2{fill:#7a4a11;}.cls-3{stroke:#000;stroke-miterlimit:10;}</style></defs><title>logo_1</title><g id="Layer_2" data-name="Layer 2"><g id="Layer_2-2" data-name="Layer 2"><path class="cls-1" d="M256.08,147.73q-.24.9-.53,1.79a9.7,9.7,0,0,0-.41,1.79,1.91,1.91,0,0,0-.35.78.71.71,0,0,1-.53.45.64.64,0,0,1-.65-.11,9.86,9.86,0,0,1-1.3-.62,1.12,1.12,0,0,1-.71-1,4.67,4.67,0,0,1-.06-1.29,10.55,10.55,0,0,1,.18-1.18,14.88,14.88,0,0,1,.71-2.75,15.11,15.11,0,0,0,.71-2.75l.47-1.12.47-.9c.16-.45.29-.88.41-1.29a4.57,4.57,0,0,1,.53-1.18,1.22,1.22,0,0,0,.47-.78,12.62,12.62,0,0,1,.65-1.85q.41-1,.77-1.85a9.52,9.52,0,0,0,.89-1.63,10.66,10.66,0,0,1,.77-1.51.3.3,0,0,0,.06-.45.32.32,0,0,0-.41-.11c-.24-.07-.33-.11-.29-.11s-.06,0-.29.11a9,9,0,0,1-3.78-.34,16,16,0,0,0-2.07-.34l-2.07-.22a.69.69,0,0,1-.47.06,2.66,2.66,0,0,0-.59-.06l-2.83-.67a4.86,4.86,0,0,1-2.36-1.12,2.78,2.78,0,0,1-1.65-1.68,4,4,0,0,1-.29-1.18,11.54,11.54,0,0,0-.18-1.18,2,2,0,0,1,.71-1.46q.47-.67.88-1.29a3.42,3.42,0,0,1,1.24-1.06l3.42-1.79a4,4,0,0,1,1.42-.78,11,11,0,0,1,3.42-1.46q4.13-1.79,7.91-3a20.71,20.71,0,0,1,3.24-1.23q1.59-.45,3.25-1a.82.82,0,0,0,.59-.22q.82-.22.88-.67a2.71,2.71,0,0,1,.53-1.12,2.65,2.65,0,0,0,.24-1,2.63,2.63,0,0,1,.24-1l.47-1.46a4,4,0,0,0,.71-2.35,7.19,7.19,0,0,0,.83-2.07q.24-1.06.47-2t.59-1.85a4.81,4.81,0,0,0,.12-1.85,2,2,0,0,0,.18-.5,1.71,1.71,0,0,1,.29-.62,10.12,10.12,0,0,0,.24-2.07,5.36,5.36,0,0,1,.47-2.07c.08-.07.06-.17-.06-.28a.49.49,0,0,0-.29-.17q-1.06.11-1.83.22t-1.71.34q-2.12.34-4,.56t-3.78.56l-3.07.67a29.72,29.72,0,0,0-3.19.9l-5.55,1.23a.54.54,0,0,0-.24.06.53.53,0,0,1-.24.06,26.23,26.23,0,0,1-3.13,1.06,26.28,26.28,0,0,0-3.13,1.06q-1.42.56-3.07,1.06T237.08,98a10.7,10.7,0,0,1-1.12.56,5.27,5.27,0,0,0-1,.56,17.77,17.77,0,0,1-2.3,1,18.31,18.31,0,0,0-2.3,1,9.24,9.24,0,0,0-1.53.56,13.55,13.55,0,0,0-1.42.78,1,1,0,0,0-.47,1.12v.78c-.16.08-.24.15-.24.22s-.08.19-.24.34a1.14,1.14,0,0,1-1.3.56,8.36,8.36,0,0,1-3.19.9q-1.77,0-2.36-2.13a2.06,2.06,0,0,0-.12-.67q0-.9.35-1.12c.08-.07.12-.13.12-.17s.08-.09.24-.17a30.35,30.35,0,0,1,3.36-2.19,23.88,23.88,0,0,1,3.6-1.63,14.46,14.46,0,0,1,2.3-1.18q1.24-.5,2.54-1.06l2.36-1a3.77,3.77,0,0,1,.65-.34l.65-.22q.94-.34,2.06-.67A14.58,14.58,0,0,0,239.8,93q5.19-1.79,9.68-3,1.18-.22,2.36-.5t2.48-.5l3.54-.9q1.77-.45,3.78-.78t4.07-.73q2.06-.39,4.42-.73,1.06-.11,2.3-.28t2.42-.28a1.17,1.17,0,0,0,.83-.34,1,1,0,0,1,.59-.34,1.31,1.31,0,0,1,1.42-.34l.59.22a1,1,0,0,0,.94.22,7.28,7.28,0,0,1,.83.06,7.74,7.74,0,0,0,.94.06q2.83-.34,5.72-.5t5.72-.28q1.89,0,3.6.06t3.48.06l4.84.56a1.67,1.67,0,0,0,.94.17,2.75,2.75,0,0,1,.95.06q1.53.23,3.07.5t3.19.62c.63.3,1.22.56,1.77.78a17.19,17.19,0,0,1,1.65.78,4.94,4.94,0,0,1,1.47,1A16.29,16.29,0,0,1,318.5,90a1.88,1.88,0,0,1,.65,1.12c0,.38.1.78.18,1.23a1.9,1.9,0,0,1-.24,1.57,5.88,5.88,0,0,1-1.42,1.57l-1.3,1.12a18.26,18.26,0,0,1-2.12,1.29A21.58,21.58,0,0,1,311.89,99a66.85,66.85,0,0,1-6.72,2.86l-7,2.52L286.53,108l-7.43,2.24-2.83.84q-1.3.39-2.83,1l-1.3.45a1.08,1.08,0,0,0-.83.78,3.94,3.94,0,0,0-.35,1,2.43,2.43,0,0,1-.47,1l-.59,1c-.08.3-.16.58-.24.84a2.94,2.94,0,0,1-.59,1,.32.32,0,0,0-.12.22.86.86,0,0,1-.12.34,13.46,13.46,0,0,1-.71,2,20.73,20.73,0,0,1-1.06,2.07,9.85,9.85,0,0,0-.94,1.79q-.35.9-.83,2c-.16.08-.22.17-.18.28s.14.17.29.17a5.49,5.49,0,0,1,1.12.11c.35.08.77.15,1.24.22a.84.84,0,0,0,.35-.06.87.87,0,0,1,.35-.06,7.27,7.27,0,0,0,1.12.34,5.35,5.35,0,0,0,1.12.11,4.3,4.3,0,0,0,1.3.22,6.41,6.41,0,0,1,1.18.11,10.41,10.41,0,0,1,1.47.11,10.16,10.16,0,0,0,1.48.11q.71.11,1.53.28a15.16,15.16,0,0,1,1.53.39l1.95.22q1,.11,2.07.34a1.7,1.7,0,0,1,1.06.11q2.36.45,4.66.84t4.66,1a9.62,9.62,0,0,1,2.12.73,16.69,16.69,0,0,0,2.13.84,10.11,10.11,0,0,1,1.65.62A11.9,11.9,0,0,0,301,134a15.5,15.5,0,0,1,2.71,1.4l2.71,1.74a3.6,3.6,0,0,1,1,.84,11.59,11.59,0,0,0,1,1.06c.16.22.29.43.41.62a1.64,1.64,0,0,0,.53.5,8,8,0,0,1,1.18,4,4.3,4.3,0,0,1-.12,1.23,7.65,7.65,0,0,1-.59,1.12,9.9,9.9,0,0,1-.94,1.23,7.37,7.37,0,0,1-1.71,1.74q-1,.73-2.3,1.51a13.45,13.45,0,0,1-3.3,1.68l-5.31,1.91a4.64,4.64,0,0,1-.95.34,9,9,0,0,0-1.06.34,6,6,0,0,0-2.24.67,9.9,9.9,0,0,0-1.12.28,3.7,3.7,0,0,1-1.12.17,1.38,1.38,0,0,1-.59.11,6.26,6.26,0,0,1-3.42.9.56.56,0,0,1-.41.06c-.12,0-.26,0-.41.17a4.82,4.82,0,0,1-1.95.67q-1,.11-2.07.34a1,1,0,0,1-.71.17,4.56,4.56,0,0,0-.71-.06h-.47a.5.5,0,0,0-.35.11,5.18,5.18,0,0,1-2.24.45,5.61,5.61,0,0,1-1.89.34,3.67,3.67,0,0,0-1.89.56.35.35,0,0,1-.24.11,1,1,0,0,0-.35.11l-4.25.5q-2.24.28-4.37.5-.59.11-1.06.17a9.13,9.13,0,0,1-1.06.06,4.67,4.67,0,0,1-1.24.28,11.9,11.9,0,0,0-1.24.17,1.88,1.88,0,0,0-1.06.11,2.81,2.81,0,0,0-1.12,0,4.94,4.94,0,0,1-1,.11,5.67,5.67,0,0,1-1,.11h-1a12.8,12.8,0,0,1-1.48.17,3.56,3.56,0,0,1-1.47-.17,1.38,1.38,0,0,1-.41-.06.55.55,0,0,0-.41.06c-.24.22-.39.26-.47.11a6.63,6.63,0,0,0-1.48-.06,11.9,11.9,0,0,0-1.24.17,1,1,0,0,1-.59-.11,1.47,1.47,0,0,0-.94-.11,8.94,8.94,0,0,1-.94.22q-2.48.11-4.54,0a25.21,25.21,0,0,1-4.42-.67,3.53,3.53,0,0,0-1.53-.34,3,3,0,0,0-1.06-.22,2.19,2.19,0,0,1-1.06-.34,4.65,4.65,0,0,0-1.12-.56,3.08,3.08,0,0,1-1-.56c-.16-.07-.22-.17-.18-.28a.25.25,0,0,0-.06-.28.41.41,0,0,1,0-.67.56.56,0,0,1,.59-.11,2.79,2.79,0,0,1,1.3-.11c.39.3.71.34.94.11s.59-.22,1.06,0q1.18.34,2.48.67a10.3,10.3,0,0,0,2.6.34c.16.08.25.09.29.06a.49.49,0,0,1,.29-.06,9.59,9.59,0,0,0,2.65.28q1.24-.06,2.89-.06a15.48,15.48,0,0,0,5-.34,2.73,2.73,0,0,0,.83.11H251q2.24-.22,4.37-.39t4.37-.39q.82-.11,1.65-.17a8.33,8.33,0,0,0,1.65-.28q2.6-.22,5.19-.67l5.19-.9q1.18-.22,2.24-.39t2.24-.39a2.06,2.06,0,0,1,.88-.22,2.9,2.9,0,0,0,1-.22l8.38-1.91q2.24-.56,4.6-1.35t4.6-1.68a24.55,24.55,0,0,0,3-1.23,21.45,21.45,0,0,0,2.65-1.57,13.53,13.53,0,0,0,2.6-1.68,4.74,4.74,0,0,0,1.65-2.24,1,1,0,0,0-.12-.78,3.61,3.61,0,0,0-1.54-2.24q-.59-.45-1.18-1t-1.18-1q-1.54-.9-3.07-1.63a19.15,19.15,0,0,0-3.19-1.18q-.83-.22-1.71-.5c-.59-.19-1.16-.35-1.71-.5l-.47-.22a14,14,0,0,0-3.48-1.12l-3.6-.67a2.16,2.16,0,0,1-.94-.22,2.73,2.73,0,0,1-.83-.11.81.81,0,0,0-.59,0,16.5,16.5,0,0,0-1.95-.34l-1.95-.22c-.39-.07-.83-.17-1.3-.28a3.64,3.64,0,0,0-1.42-.06h-.35a11.17,11.17,0,0,0-3-.5,24.13,24.13,0,0,1-2.95-.28l-1.42-.22a1,1,0,0,0-.59-.06,3.76,3.76,0,0,1-.59.06,11.58,11.58,0,0,0-2.07-.28q-1.12-.05-2.18-.17a1.44,1.44,0,0,0-.59.17,2,2,0,0,0-.47.28.36.36,0,0,0-.24.34,8.06,8.06,0,0,1-.71,1.91q-.47.9-.94,1.91l-1.53,3.25q-.35.9-.77,1.85a9.33,9.33,0,0,1-.88,1.63,4.89,4.89,0,0,0-.47,1.68,12.34,12.34,0,0,1-.65,2.13A13.11,13.11,0,0,0,256.08,147.73Zm-5.78-22.08,1.89.22q.94.11,2,.34a13.7,13.7,0,0,0,2.18.28q1.12.06,2.3.17a.91.91,0,0,0,.65,0,1.69,1.69,0,0,1,.77-.11.69.69,0,0,0,.59-.45,7.08,7.08,0,0,1,.47-.78,2.44,2.44,0,0,0,.35-.9,7,7,0,0,0,.83-1.63,5.65,5.65,0,0,1,.59-1.29l1.42-2.8a2.39,2.39,0,0,1,.35-.78,2.43,2.43,0,0,0,.35-.78,3.46,3.46,0,0,1,.95-2,1.15,1.15,0,0,1,.06-.39.89.89,0,0,0,.06-.28c.24-.22.2-.34-.12-.34a2.2,2.2,0,0,1-.53.17,1.05,1.05,0,0,0-.53.28q-1.54.56-2.66,1t-2.77,1.23q-1.66.45-3.19,1T253.13,119l-3.3,1.57a13.41,13.41,0,0,0-3.07,2l-1.06.39a1.25,1.25,0,0,0-.71.62q-.59.56,0,.78a1.16,1.16,0,0,0,.83.34,4.43,4.43,0,0,0,1.06.28,3.08,3.08,0,0,1,.94.28Zm52.51-37.33a6.61,6.61,0,0,1-2.95-.22,1.49,1.49,0,0,1-.53-.11,1,1,0,0,0-.65,0q-1.54-.11-3.07-.17a31.05,31.05,0,0,0-3.19.06q-3.3,0-6.61.11t-6.61.45a1,1,0,0,0-.59.11c-.47.15-.71.34-.71.56a21.1,21.1,0,0,1-.53,2.19,4.47,4.47,0,0,0-.06,2.19c-.08.15-.18.32-.29.5a1.13,1.13,0,0,0-.18.62,1,1,0,0,1-.12.45.45.45,0,0,0,0,.45,5.28,5.28,0,0,1-.24,1.63q-.24.73-.47,1.63a17.55,17.55,0,0,1-.71,3,17.25,17.25,0,0,0-.71,3q-.24.67-.47,1.29a6.65,6.65,0,0,1-.59,1.18,1.72,1.72,0,0,0,0,.9c0,.15.12.22.35.22a1.65,1.65,0,0,0,1.18-.45q2-.56,4.13-1.12a31.48,31.48,0,0,0,4.25-1.46l1.54-.39c.47-.11.94-.24,1.42-.39q1.29-.45,2.6-.84l2.83-.84a14.54,14.54,0,0,0,1.77-.62,11.45,11.45,0,0,1,2-.62,7.13,7.13,0,0,0,1.77-.67,5,5,0,0,1,1.89-.56,22.67,22.67,0,0,1,2.89-1.23L305.41,98a6.79,6.79,0,0,1,1.06-.39,3.45,3.45,0,0,0,1.06-.5l2.36-1.12a15.64,15.64,0,0,1,2-.9,7.81,7.81,0,0,0,1.77-.9,7.51,7.51,0,0,0,2.12-1.79c.16-.3.12-.49-.12-.56a1.32,1.32,0,0,0-.95-.5,4.45,4.45,0,0,1-1.18-.28,26.63,26.63,0,0,0-2.77-1,20.36,20.36,0,0,0-3.13-.67l-.71-.22a4.75,4.75,0,0,0-1.42-.34Z"/><path class="cls-1" d="M336.2,141.22a4.29,4.29,0,0,1-1.3-.22q-.71-.22-1.65-.45a12.74,12.74,0,0,1-2.6-1.63,5.78,5.78,0,0,1-1.42-2.63,6.3,6.3,0,0,1-.47-4.15l1.06-3.59q.59-1,1.18-2.13a15.85,15.85,0,0,0,.94-2.13c.08,0,.08,0,0-.11a.14.14,0,0,1,0-.22.76.76,0,0,1,.47-.34.81.81,0,0,1,.59,0l.83.39a6.93,6.93,0,0,1,.71.39c.08.08.12.13.12.17s.08.09.24.17a2.17,2.17,0,0,1,.77,1.23,2.43,2.43,0,0,1-.53,1.46l-2,4.37q-.35,1-.65,2a3.88,3.88,0,0,0-.06,2,2.15,2.15,0,0,0,2.06,2.19,12.94,12.94,0,0,0,3.6.06,23.1,23.1,0,0,0,3.66-.84,38.3,38.3,0,0,0,4-1.46,40.6,40.6,0,0,0,3.66-1.79,24.39,24.39,0,0,0,2.89-1.85c.47-.37.75-.6.83-.67a.35.35,0,0,1,.24-.11.74.74,0,0,0,.35-.17l1.18-.84a10.16,10.16,0,0,1,1.06-.84,10.25,10.25,0,0,0,1.06-.84,6.43,6.43,0,0,0,1.12-.73q.65-.5,1.3-1a3.39,3.39,0,0,1,1.18-.56.84.84,0,0,1,.88.34,1.07,1.07,0,0,1-.12,1.06,1.07,1.07,0,0,0,0,1.18l-.24.67a1.07,1.07,0,0,1-.59.67,8.15,8.15,0,0,1-.94.22L358,131.81a12,12,0,0,0-1.42,1.35q-1.18.9-1.89,1.35t-1.24.84a11.12,11.12,0,0,1-1.12.73q-.59.34-1.42.9c0,.08-.2.15-.59.22a1.79,1.79,0,0,0-.71.22,4.31,4.31,0,0,1-1.89,1.23,29.53,29.53,0,0,0-2.83,1.12q-1.77.45-4.07,1.12A10.94,10.94,0,0,1,336.2,141.22Zm1.06-25.45a2.18,2.18,0,0,0-.59-.22,1.29,1.29,0,0,1-.35-.22L336,115a2.56,2.56,0,0,1-.35-2l.47-1.79a5,5,0,0,1,.94-1.79c0-.37.08-.49.24-.34a2.89,2.89,0,0,1,1.18-.34,5.22,5.22,0,0,1,2,1.23c.39.22.57.47.53.73s-.1.58-.18,1a.67.67,0,0,1-.12.39,3.4,3.4,0,0,0-.24.39,8.58,8.58,0,0,0-1.42,2.13c.24.15.2.26-.12.34A1.87,1.87,0,0,1,337.27,115.78Z"/><path class="cls-1" d="M364.17,146.16a.89.89,0,0,1,.12-1,3,3,0,0,0,.24-1.18v-1.29a3.39,3.39,0,0,1,.18-1.63,8.47,8.47,0,0,0,.41-1.74,4.38,4.38,0,0,1,.24-1.46c.16-.45.32-1,.47-1.57l.35-2.58a9.8,9.8,0,0,0,.65-2.19,12,12,0,0,1,.65-2.3V129q.23-.56,1-2.8t1.65-4.76q.88-2.52,1.65-4.54a16.25,16.25,0,0,1,.88-2.13q.47-1.23.77-2.3a13.92,13.92,0,0,1,.88-2.3,4.8,4.8,0,0,1,.47-1.23,10.23,10.23,0,0,0,.59-1.35,12.08,12.08,0,0,0,1.06-2.35,13.6,13.6,0,0,1,.94-2.24c.16-.07.24-.15.24-.22q.71-1.91,1.36-3.7a28.35,28.35,0,0,1,1.59-3.59q.71-1.57,1.36-3.08A23.88,23.88,0,0,0,383,89.1l.24-1a1.57,1.57,0,0,1,.12-.62,1.16,1.16,0,0,0,0-.73q0-.56,1.18-.9a3.54,3.54,0,0,1,1.77.22q.82.34,1.53.67a1.53,1.53,0,0,1,.35.5.62.62,0,0,1-.12.62q-.71,2.24-1.59,4.32t-1.83,4.43L382,102.77a.87.87,0,0,0-.12.39.61.61,0,0,1-.24.39q-.47,1.12-.83,2.07a12.68,12.68,0,0,1-.94,2,17,17,0,0,0-1.3,3.19,13.53,13.53,0,0,1-1.42,3.19,10.17,10.17,0,0,1-.59,1.51,8.84,8.84,0,0,0-.59,1.63c-.16.38-.41,1-.77,2s-.73,2-1.12,3.19l-1.18,3.59q-.59,1.79-.94,3-.24.79-.53,1.68a10.16,10.16,0,0,0-.41,1.68c-.16.67-.29,1.31-.41,1.91a6.61,6.61,0,0,1-.65,1.79q-.47,1.91-.83,3.42a9.06,9.06,0,0,0-.24,2.86,8.84,8.84,0,0,1-.24,2,6.34,6.34,0,0,0-.12,2.13.69.69,0,0,1,0,.56,4.06,4.06,0,0,0-.24.56,4.62,4.62,0,0,0-.06,2,12.34,12.34,0,0,0,.53,2.07l.24.22a.44.44,0,0,0,.12.34.15.15,0,0,0,.24,0,.83.83,0,0,1,1,0,.9.9,0,0,1,.35.84,1.51,1.51,0,0,1-.59,1,2.87,2.87,0,0,1-1.83.45,3.49,3.49,0,0,1-2.48-1,2.55,2.55,0,0,1-1.06-1.29c-.16-.48-.31-1-.47-1.63a5.82,5.82,0,0,0,.06-2.19A12.62,12.62,0,0,1,364.17,146.16Z"/><path class="cls-1" d="M412,149.63a4,4,0,0,0-.24-.39.88.88,0,0,1-.12-.5,2.6,2.6,0,0,0-.06-1.63,1.51,1.51,0,0,1,.06-1.4,3.52,3.52,0,0,1-.06-1.12,3.68,3.68,0,0,0-.06-1.12.58.58,0,0,0,0-.5.42.42,0,0,1,.12-.5.22.22,0,0,1,.06-.17.22.22,0,0,0,.06-.17,2,2,0,0,1-.06-1.29,5.52,5.52,0,0,0,.18-1.29,9.21,9.21,0,0,0,.35-1.29c.08-.41.16-.84.24-1.29a7.25,7.25,0,0,1,.24-1.46q.24-1,.47-2.24t.53-2.52a22.2,22.2,0,0,0,.41-2.3q.12-.22-.41.62a3.18,3.18,0,0,0-.53,1.06,4.57,4.57,0,0,0-1,1.18,3.44,3.44,0,0,1-1.12,1.18,21.46,21.46,0,0,1-2.77,2.8q-1.48,1.23-3,2.69a16.14,16.14,0,0,1-2.12,1.91q-1.06.79-2.12,1.68l-.59.45a9.81,9.81,0,0,1-4.48,1.91,8.89,8.89,0,0,1-3.19.11,9.15,9.15,0,0,1-1.71-.5,2.43,2.43,0,0,1-1.12-1.18,3,3,0,0,1-1.3-2.13,1.2,1.2,0,0,1-.12-.56l.24-2.58a.89.89,0,0,1,.24-.67,2.11,2.11,0,0,0,.47-1.57.32.32,0,0,1,.12-.22,1.21,1.21,0,0,0,.24-.34,5.39,5.39,0,0,0,.59-1.35c.16-.52.32-1,.47-1.35q.59-.78,1-1.46a9.78,9.78,0,0,1,1-1.35,15.46,15.46,0,0,1,1.06-1.35,10.07,10.07,0,0,0,.94-1.23c.16-.15.33-.34.53-.56a4.11,4.11,0,0,0,.53-.78l.24-.11q.82-.78,1.59-1.57a6,6,0,0,1,1.71-1.23,6.73,6.73,0,0,1,.83-.34l.71-.22c.08-.15.27-.22.59-.22h1.53a3.05,3.05,0,0,1,1.3.34c.47.22.9.41,1.3.56a4,4,0,0,1,1.48,1.51,7.61,7.61,0,0,1,.77,2l.59,1.35q.24.23-.12.5a2.21,2.21,0,0,1-.71.39,2.16,2.16,0,0,1-.94.22,1.89,1.89,0,0,1-1.3-.34,5.09,5.09,0,0,0-.35-.73.88.88,0,0,1-.12-.5c-.16-.37-.31-.77-.47-1.18a2.44,2.44,0,0,0-.83-1.06c-.08-.22-.08-.34,0-.34s0-.07-.12-.22a1.09,1.09,0,0,0-1.12-.06,3.26,3.26,0,0,0-.88.5l-1.42,1.35q-1.3,1.57-2.6,3.19t-2.48,3.31q-.59,1.23-1.18,2.75a23.33,23.33,0,0,0-.94,3,3.57,3.57,0,0,1-.12.9,3.91,3.91,0,0,0-.12,1,1.25,1.25,0,0,0,0,1.06c.16.34.31.66.47,1s.31.3.47.22a1.39,1.39,0,0,1,.59-.11h.35a4.13,4.13,0,0,0,1.59-.62,9.21,9.21,0,0,1,1.48-.84,52,52,0,0,0,7-5.72,11.76,11.76,0,0,0,1.12-1.23,12.77,12.77,0,0,1,1.24-1.35,4.75,4.75,0,0,0,1.18-1q.59-.67,1.18-1.46a3,3,0,0,1,.59-.62c.24-.19.47-.39.71-.62a6.61,6.61,0,0,1,.89-1.18,4.38,4.38,0,0,0,.88-1.4,4.21,4.21,0,0,1,.47-.39,1,1,0,0,0,.35-.5c.24-.37.43-.71.59-1a5.81,5.81,0,0,1,.59-.9,10.53,10.53,0,0,0,1.06-2.58q.47-2,1.06-4t1.3-4.15l.71-2.24.53-1.51c.2-.56.41-1.14.65-1.74a1.65,1.65,0,0,1,.24-.67A19.47,19.47,0,0,1,421.1,102a24.3,24.3,0,0,1,1.71-3.47q.59-1.23,1.06-2.3a17.75,17.75,0,0,0,.83-2.3,1,1,0,0,0,.35-.78,8.84,8.84,0,0,0,1.42-2.69q.94-1.57,1.95-3.08t2.06-3.08A4.48,4.48,0,0,1,431.9,83c0-.07.08-.11.24-.11q.94.11,1.71.17a11.18,11.18,0,0,1,1.71.28,2.12,2.12,0,0,0,.59.17,1,1,0,0,1,.47.17,3.62,3.62,0,0,1,1.65,3.7q-.24,1.57-.59,3.31A15.52,15.52,0,0,1,436.62,94a1.49,1.49,0,0,0-.12.67q-.47,1.23-1,2.35t-1.12,2.24q-.59,1.12-1.18,2.13l-1.18,2q-.71,1.35-1.36,2.47t-1.47,2.35q-1.18,2-2.42,4.09a33.89,33.89,0,0,1-2.89,4.09Q423,117.68,422,119T420,121.72a9.76,9.76,0,0,1-.77,1.23,2,2,0,0,0-.41,1.23l-1.18,5a45.53,45.53,0,0,0-1.36,6.89q-.53,4.09-.88,8.91a.45.45,0,0,0,0,.45,1,1,0,0,1,.12.45q.12,1.23.24,2c.08.49.16,1,.24,1.4s.14.71.18,1a2.07,2.07,0,0,0,.53,1,10.4,10.4,0,0,1,.71,1.18c.08.19.47.47,1.18.84.47.15.69.19.65.11s.14,0,.53.11.37.39.18.73a2.08,2.08,0,0,1-.65.73c-.39.08-.53.09-.41.06l-.18.06a4.22,4.22,0,0,1-2.36,0,4.49,4.49,0,0,1-1.77-1,8.56,8.56,0,0,0-1-1,3.08,3.08,0,0,1-.77-.9q.35-.34,0-.34a2.73,2.73,0,0,1-.59-1.68.32.32,0,0,0-.12-.22A.44.44,0,0,1,412,149.63ZM420.1,116q.94-1.46,1.83-2.69t1.83-2.58a6.17,6.17,0,0,1,.53-.84,5.83,5.83,0,0,1,.65-.73,10.06,10.06,0,0,0,.35-1,4.73,4.73,0,0,1,.35-.84q.59-1,.94-1.57a5.94,5.94,0,0,1,.94-1.12.63.63,0,0,0,.24-.45v-.34q1.18-2.13,2.24-4.32t2.24-4.65L433,92a25.94,25.94,0,0,1,.94-3,3,3,0,0,0-.12-1.91.1.1,0,0,0-.12-.11h-.35a3.1,3.1,0,0,0-.83,1.23,23.53,23.53,0,0,0-1.36,2.19q-.65,1.18-1.24,2.19-1.65,3-3.07,5.72a47.65,47.65,0,0,0-2.6,5.94,6.67,6.67,0,0,0-.83,1.35,5.6,5.6,0,0,0-.35,1.23q-.83,2-1.65,4.15a33.12,33.12,0,0,0-1.3,4c-.32.22-.39.6-.24,1.12H420Z"/><path class="cls-1" d="M441.57,123.29a9.74,9.74,0,0,1,.29-1.23q.18-.56.29-1.12c0,.08.08-.13.24-.62s.35-1.1.59-1.85.47-1.51.71-2.3a16.4,16.4,0,0,1,.71-2,10.41,10.41,0,0,0,.71-1.74,10.22,10.22,0,0,1,.71-1.74,9.75,9.75,0,0,0,.59-1q.35-.67.71-1.46c.24-.52.43-1,.59-1.46a3.43,3.43,0,0,0,.24-1l-.12.11h-.12c-.16-.15-.28-.11-.35.11l-2.12.67-3.3,1.12a2.94,2.94,0,0,1-.77.22h-.24a.47.47,0,0,0-.18.06l-.59.28a9.57,9.57,0,0,1-1.36.39l-1.71.39a1.83,1.83,0,0,1-1.06-.45q-.47-.22-.18-.73c.2-.34.26-.54.18-.62l-.12-.11c-.08-.52.06-.82.41-.9a5,5,0,0,1,1-.11l2.36-.78a2,2,0,0,0,.24-.28c.08-.11.24-.09.47.06a6.86,6.86,0,0,1,1.53-.56,1.88,1.88,0,0,1,.71-.22,4.58,4.58,0,0,1,1.47-.62q.77-.17,1.48-.28l.47-.22a1.11,1.11,0,0,1,.47-.11,7.06,7.06,0,0,0,1.06-.28l1.06-.39c.55-.22.83-.41.83-.56a.32.32,0,0,1,.12-.22v-.11l.71-1.68,5.19-12.56a3.61,3.61,0,0,0,.24-.62,9.21,9.21,0,0,1,.35-1l.35-.56q.24-.56,1.42-.56a2.92,2.92,0,0,1,1.77.45l.29.56a6,6,0,0,0,.41.67,3.54,3.54,0,0,1,.24.67.9.9,0,0,1-.12.78,64.71,64.71,0,0,0-3.42,6.5Q455.62,97.51,454,101c-.16.15-.14.21.06.17a.47.47,0,0,1,.41.06q2.48-.56,3.83-.78t3.6-.78a3,3,0,0,0,1.3-.28,1.21,1.21,0,0,1,1.18.06,1,1,0,0,1,.59-.06.65.65,0,0,0,.59-.17,3,3,0,0,1,2.12.11.88.88,0,0,1,.71-.11,1.58,1.58,0,0,1,1.36-.06,3.67,3.67,0,0,0,1.47.28q.24-.11.18.11c0,.15,0,.22.06.22.24,0,.37.06.41.17s0,.17-.18.17c-.39.15-.55.32-.47.5s.08.28,0,.28a10.8,10.8,0,0,1-1.77.28,6.68,6.68,0,0,0-1.77.39,10.89,10.89,0,0,0-1.12.06,4.58,4.58,0,0,0-1.12.28l-.47.22a8.12,8.12,0,0,0-2.77.28,28.31,28.31,0,0,1-2.89.62q-.71.23-1.12.39l-1,.39-2,.34-1.77.56c-.4,0-.61.08-.65.22a1,1,0,0,1-.29.45,3.54,3.54,0,0,0-.41.9q-.3.79-.59,1.68a16.87,16.87,0,0,1-.65,1.68c-.24.52-.39.86-.47,1q-1.42,3.93-2.83,7.4a73,73,0,0,0-2.48,7.12,71.66,71.66,0,0,0-1.77,7.68,52.14,52.14,0,0,0-.71,9q0,2.69.12,3.87a6.85,6.85,0,0,0,.29,1.63,1.19,1.19,0,0,0,.35.56,1.56,1.56,0,0,1,.41.56,2.79,2.79,0,0,1,1.24.5,1.61,1.61,0,0,1,.65.84.83.83,0,0,1-.29.84,2.37,2.37,0,0,1-1.59.39.68.68,0,0,1-.47-.22,10.93,10.93,0,0,1-2.07-.84,3.29,3.29,0,0,1-.88-1.4,9.46,9.46,0,0,1-1.12-4.26q-.18-2.69-.18-4.71l.24-4.15a7.07,7.07,0,0,1,.12-1.57q.12-.45.35-1.57a33.43,33.43,0,0,1,.65-4,40.5,40.5,0,0,1,1-4Z"/><path class="cls-1" d="M473.2,142.23q-1.3-.22-2.66-.39a4.34,4.34,0,0,1-2.3-1,23.42,23.42,0,0,1-2.42-2.69,4.23,4.23,0,0,1-.88-3.25c0-.15,0-.47.06-1a1.56,1.56,0,0,1,.29-1l.24-.67q.59-1.35.83-1.79t1.06-1.68a24.22,24.22,0,0,1,5.19-5.38,18.83,18.83,0,0,1,2.12-1.51,26.9,26.9,0,0,1,2.6-1.4,2.09,2.09,0,0,0,.94-.34,2.54,2.54,0,0,1,1.95.11,5.7,5.7,0,0,1,1.59,1l.47,1.12a4.81,4.81,0,0,1-1.42,4.37,38.26,38.26,0,0,1-2.77,2.8q-1.48,1.35-3.13,2.58a3.08,3.08,0,0,1-.65.45,3.11,3.11,0,0,0-.65.45,1.46,1.46,0,0,1-.88.39c-.35,0-.73.09-1.12.17a1.14,1.14,0,0,1-1.65-.34l-.47-.34h-.24c-.08,0-.12,0-.12.11a3.22,3.22,0,0,0-.65,1.79c0,.67-.06,1.27-.06,1.79a2.56,2.56,0,0,0,.83,1.23,2.5,2.5,0,0,0,1.12.78,3.74,3.74,0,0,0,1.24.22,5.85,5.85,0,0,0,1.3.11A17.78,17.78,0,0,1,475,139a6.45,6.45,0,0,0,2.3-.45,50.91,50.91,0,0,0,7.91-2.47q3.54-1.46,7.2-3,1.89-.9,3.48-1.74t3.25-1.63q1.06-.56,1.3-.73l1.42-1q.59-.56.65-.5a3.06,3.06,0,0,0,1-.28c.16-.15.22-.17.18-.06a.8.8,0,0,0,.06.5c.08.3.18.66.29,1.07a.8.8,0,0,1-.29,1q-.83.79-.71.84c.08,0-.16.28-.71.73a29.47,29.47,0,0,1-3.54,2.13q-1.77.9-3.66,2-1.3.56-2.42,1.12t-2.18,1q-2.36.9-4.78,1.85a32.15,32.15,0,0,1-5,1.51l-3.42.9a12.56,12.56,0,0,1-2,.39Q474.61,142.23,473.2,142.23Zm-1.53-12a21.35,21.35,0,0,0,3.78-2.69,37.21,37.21,0,0,0,3.42-3.48.55.55,0,0,0-.24.06.53.53,0,0,1-.24.06,15.86,15.86,0,0,0-3.83,2.13,8.9,8.9,0,0,0-2.54,3.14C471.94,129.45,471.82,129.72,471.66,130.24Z"/><path class="cls-1" d="M530.43,123.29a.28.28,0,0,0-.29-.06.93.93,0,0,1-.53-.06,3.82,3.82,0,0,0-2,.11,11.88,11.88,0,0,0-1.24.56q-.65.34-1.24.67a8.77,8.77,0,0,0-1.95,1.4q-.88.84-1.83,1.63a11,11,0,0,0-1.65,1.4q-.83.84-2.12,2.41a11.38,11.38,0,0,1-.88,1.4c-.35.49-.69,1-1,1.4a1.65,1.65,0,0,1-.59.78,9.34,9.34,0,0,0-1.06,2.3c-.24.78-.51,1.59-.83,2.41a1.76,1.76,0,0,1-.06.45,1.73,1.73,0,0,0-.06.45,1.48,1.48,0,0,1-.77.67.92.92,0,0,1-.88,0,5.66,5.66,0,0,1-2.24-1.12.88.88,0,0,1-.35-1.23q.24-.56.47-1.18a6.65,6.65,0,0,1,.59-1.18,10,10,0,0,0,1.06-3.14q.59-2,1-4.09t1-4.09a2.88,2.88,0,0,0,.24-1.12,5.41,5.41,0,0,1,.12-1.12,12.84,12.84,0,0,0,.47-3.48.89.89,0,0,1,.71-.9,1.28,1.28,0,0,1,1.18.11,9.08,9.08,0,0,1,1.65.9q.94.56.71,1.23-.12,1.23-.3,2.35t-.41,2.35v.22h.12q.71-.56,1.06-.78a3.91,3.91,0,0,0,.83-.78,7.08,7.08,0,0,1,2.71-1.74q1.65-.61,3.19-1.06a5.2,5.2,0,0,1,3.07-.22l1.36.45a3.49,3.49,0,0,1,1.24.78.32.32,0,0,1,.12.22.82.82,0,0,0,.12.34c.08.08.06.15-.06.22a.75.75,0,0,1-.41.11Z"/><path class="cls-1" d="M569.25,138.42a5,5,0,0,1-1.89-.34,15.67,15.67,0,0,1-1.89-1.07,5.18,5.18,0,0,1-1.53-1.51,12.28,12.28,0,0,1-2.24-4.37q0-.34-.35-.34l-2,1.91q-1.77,1.34-3.48,2.69a41.78,41.78,0,0,1-3.48,2.47q-1.18.67-2.3,1.23a8.64,8.64,0,0,1-2.42.78,9,9,0,0,1-3,.45,2.82,2.82,0,0,1-3.07-2l-.94-1.68a3.42,3.42,0,0,1-.12-2.91,5.51,5.51,0,0,1,.77-1.68,10.51,10.51,0,0,0,.88-1.57l1.3-1.57a48.65,48.65,0,0,1,3.48-3.42,27.26,27.26,0,0,1,3.83-2.86l2-1.12a7.3,7.3,0,0,1,3.54-.9,1.9,1.9,0,0,1,1.53.56,6.25,6.25,0,0,1,2,3.25,1.67,1.67,0,0,1-.24.67c-.24.15-.39.15-.47,0l-.83-.67q-.59-.56-1.06-.22c-.63.15-1.26.28-1.89.39a5.63,5.63,0,0,0-1.89.73,15,15,0,0,0-3.89,2.69,2.34,2.34,0,0,0-.83.67,16.4,16.4,0,0,0-4.37,4.93,5.43,5.43,0,0,0-1.3,2.58q-.24.45.24.45a2.32,2.32,0,0,0,.71.11h.59a12.67,12.67,0,0,1,1.71-.34,3.82,3.82,0,0,0,1.59-.56,19.86,19.86,0,0,0,6.14-3.81l2.83-2.24.65-.39a2.72,2.72,0,0,0,.53-.39q.94-1,1.83-1.91a22.64,22.64,0,0,0,1.83-2.13,1,1,0,0,1,1.42-.34l1.06.5a1.73,1.73,0,0,1,.83.73q.12.45.18.73a1.66,1.66,0,0,1-.06.73,14.47,14.47,0,0,0-.18,1.46c0,.52-.06,1-.06,1.57a7.34,7.34,0,0,0,.83,3.48,1,1,0,0,0,.53.28,1.07,1.07,0,0,1,.53.28,6.08,6.08,0,0,0,3.42,1,10.89,10.89,0,0,0,3.54-.73,16.09,16.09,0,0,1,1.65-.5,6.11,6.11,0,0,0,1.65-.73,22.35,22.35,0,0,1,2.6-1.68,9,9,0,0,0,2.36-2q.35-.34,1.3-1.4a9.83,9.83,0,0,0,1.18-1.51l.35-.22c0-.07.18-.11.53-.11s.53,0,.53.11l.47.67q.35.79-.53,2.07c-.59.86-1,1.48-1.36,1.85a17.53,17.53,0,0,1-6.2,5.27,16.69,16.69,0,0,1-7,2c-.16,0-.51,0-1.06.11S569.41,138.57,569.25,138.42Z"/><path class="cls-1" d="M596,123.18a7.11,7.11,0,0,1,.06,1.57q-.06.79-.18,1.57a2.73,2.73,0,0,0-.24,1.06,5.21,5.21,0,0,1-.12,1.06l.12.11q.12,0,0,.17t0,.17l2.12-1.57,1.3-1.46.35-.34a18,18,0,0,1,1.47-1.62,11.68,11.68,0,0,1,1.95-1.4l1.06-.9a9.83,9.83,0,0,0,1.12-.5,8.59,8.59,0,0,0,1-.62,4.35,4.35,0,0,1,1.3-.22l.83-.22a3.07,3.07,0,0,1,1.42.11l.83.11.71.34.83.34A3.4,3.4,0,0,1,613.5,122a13.55,13.55,0,0,1,1.06,1.51v.34a2.38,2.38,0,0,1,.53,1.4,3.08,3.08,0,0,1-.18,1.4,9.21,9.21,0,0,1-.06,1.06,5.65,5.65,0,0,1-.29,1.18q-.59,1.35-1.24,2.63a12.81,12.81,0,0,1-1.83,2.63,22.46,22.46,0,0,1-1.65,1.63q-.83.73-1.89,1.63a7.37,7.37,0,0,1-1.24.56,7.35,7.35,0,0,0-1.24.56,4.45,4.45,0,0,1-1.12.28,8.45,8.45,0,0,0-1,.17,2.78,2.78,0,0,1-1.53.06,8.58,8.58,0,0,1-1.65-.39,1.25,1.25,0,0,1-.94-.5.83.83,0,0,1-.12-.73.86.86,0,0,1,.53-.5.89.89,0,0,1,.88.17q.24-.22.12-.17t.12-.17a22.81,22.81,0,0,0,2.36-1,4.88,4.88,0,0,0,1.77-1.4c.08.08.24,0,.47-.22s.39-.45.47-.45.35-.3.83-.9q.59-.67,1.12-1.35t1.12-1.35a14.15,14.15,0,0,0,.83-1.91,9.44,9.44,0,0,0,.47-2,4.84,4.84,0,0,0-.12-3.14l.12-.22c0-.37-.16-.56-.47-.56l-.94-.11c-.39.08-.53.09-.41.06s0,.06-.41.28a10.58,10.58,0,0,0-1.71,1,14,14,0,0,1-1.59,1,4,4,0,0,1-.83.78,4,4,0,0,0-.83.78l-2.48,2.24a4.3,4.3,0,0,1-1.3,1.35,7.18,7.18,0,0,1-1.53,2.13,10,10,0,0,1-1.3,2.13q-1.06,1.46-1.53,2.13-.24.56-.53,1.12a9,9,0,0,0-.53,1.23q-.24.67-.53,1.79t-.71,2.3l-.83,2.35q-.41,1.18-.65,2-.47,1.91-1,3.7t-1.24,3.7q-.59,2.35-1.42,4.71l-1.65,4.71-.94,2q-.47,1.46-.94,2.8a25.17,25.17,0,0,1-1.06,2.58l-.83,1.79c-.47.3-.83.37-1.06.22s-.67-.34-1.06-.56-.75-.45-1.06-.67a.8.8,0,0,1-.35-1v-.45a2,2,0,0,1,.06-1.06,8.26,8.26,0,0,0,.29-1.06q.12-.67.18-1.23a4,4,0,0,1,.29-1.12,4.93,4.93,0,0,0,.12-1,2.65,2.65,0,0,1,.24-1q.59-1.68,1.06-3.42a16.27,16.27,0,0,1,1.3-3.31,1.28,1.28,0,0,0,.12-.9,10.79,10.79,0,0,1,.59-1.68,12.73,12.73,0,0,0,.59-1.57v-.22a2.27,2.27,0,0,1,.59-.73,1.14,1.14,0,0,0,.35-1,2.6,2.6,0,0,1,.12-.73q.12-.39.24-.84a6.16,6.16,0,0,1,.59-1.23,14.18,14.18,0,0,0,1.42-3.25,10.26,10.26,0,0,1,.53-1.4q.3-.62.53-1.18l.59-.67a17.12,17.12,0,0,1,.94-2.47l1.06-2.35a3.65,3.65,0,0,0,.47-1,8.07,8.07,0,0,1,.35-1c.08-.22.16-.47.24-.73s.16-.58.24-1l.35-1.91.24-2.13q.24-1.57.35-2.91t.24-2.8v-3.36l.35-.9c0-.15.16-.22.47-.22a.93.93,0,0,0,.35.11.35.35,0,0,1,.24.11,1,1,0,0,1,.71.22,10.77,10.77,0,0,1,1.12,1,4.14,4.14,0,0,1,.18,1.68Z"/><path class="cls-1" d="M638.63,141.22a4.29,4.29,0,0,1-1.3-.22q-.71-.22-1.65-.45a12.74,12.74,0,0,1-2.6-1.63,5.78,5.78,0,0,1-1.42-2.63,6.3,6.3,0,0,1-.47-4.15l1.06-3.59q.59-1,1.18-2.13a15.85,15.85,0,0,0,.94-2.13c.08,0,.08,0,0-.11a.14.14,0,0,1,0-.22.76.76,0,0,1,.47-.34.81.81,0,0,1,.59,0l.83.39a6.93,6.93,0,0,1,.71.39c.08.08.12.13.12.17s.08.09.24.17a2.17,2.17,0,0,1,.77,1.23,2.43,2.43,0,0,1-.53,1.46l-2,4.37q-.35,1-.65,2a3.88,3.88,0,0,0-.06,2,2.15,2.15,0,0,0,2.06,2.19,12.94,12.94,0,0,0,3.6.06,23.1,23.1,0,0,0,3.66-.84,38.3,38.3,0,0,0,4-1.46,40.6,40.6,0,0,0,3.66-1.79,24.39,24.39,0,0,0,2.89-1.85c.47-.37.75-.6.83-.67a.35.35,0,0,1,.24-.11.74.74,0,0,0,.35-.17l1.18-.84a10.16,10.16,0,0,1,1.06-.84,10.25,10.25,0,0,0,1.06-.84,6.43,6.43,0,0,0,1.12-.73q.65-.5,1.3-1a3.39,3.39,0,0,1,1.18-.56.84.84,0,0,1,.88.34,1.07,1.07,0,0,1-.12,1.06,1.07,1.07,0,0,0,0,1.18l-.24.67a1.07,1.07,0,0,1-.59.67,8.15,8.15,0,0,1-.94.22l-1.53,1.23a12,12,0,0,0-1.42,1.35q-1.18.9-1.89,1.35t-1.24.84a11.12,11.12,0,0,1-1.12.73q-.59.34-1.42.9c0,.08-.2.15-.59.22a1.79,1.79,0,0,0-.71.22,4.31,4.31,0,0,1-1.89,1.23,29.53,29.53,0,0,0-2.83,1.12q-1.77.45-4.07,1.12A10.94,10.94,0,0,1,638.63,141.22Zm1.06-25.45a2.18,2.18,0,0,0-.59-.22,1.29,1.29,0,0,1-.35-.22l-.35-.34a2.56,2.56,0,0,1-.35-2l.47-1.79a5,5,0,0,1,.94-1.79c0-.37.08-.49.24-.34a2.89,2.89,0,0,1,1.18-.34,5.22,5.22,0,0,1,2,1.23c.39.22.57.47.53.73s-.1.58-.18,1a.67.67,0,0,1-.12.39,3.4,3.4,0,0,0-.24.39,8.58,8.58,0,0,0-1.42,2.13c.24.15.2.26-.12.34A1.87,1.87,0,0,1,639.69,115.78Z"/><path class="cls-1" d="M687.72,81.81a14.66,14.66,0,0,1-.12,2.35c-.16.75-.29,1.53-.41,2.35a9.57,9.57,0,0,1-.65,2.35l-2.24,7.06q-.59,2-1.24,4t-1.36,4l-2.12,5.94q-.35,1.23-.71,2.24t-.83,2.24q-1.06,2.47-2,4.82T673.91,124q-.59,1.46-1.12,2.91t-1,3a5.8,5.8,0,0,1-.35,1.23,2.84,2.84,0,0,0-.24,1.12.31.31,0,0,0,.12.22h.12l.71-.67q.59-.78,1.24-1.57a16.71,16.71,0,0,1,1.36-1.46l1.89-1.79q.94-.9,1.89-1.68a5.23,5.23,0,0,1,1.12-.84,8,8,0,0,0,1.12-.73,5.31,5.31,0,0,1,5.07.34,5.24,5.24,0,0,1,1,.73l.88.84a4.11,4.11,0,0,1,1.3,1.79,5.93,5.93,0,0,1,.41,1.74,9.16,9.16,0,0,0,.29,1.74,8.11,8.11,0,0,0,.88,2.75,19.05,19.05,0,0,0,1.59,2.41,4.37,4.37,0,0,0,2.6,1.35,20.48,20.48,0,0,0,5-.67,24.26,24.26,0,0,0,4.25-1.79q2.24-1.23,3.48-2a25.2,25.2,0,0,0,3.13-2.3,1.42,1.42,0,0,0,.83-.73,1.41,1.41,0,0,1,.83-.73,4.58,4.58,0,0,0,.77-.67c.2-.22.41-.49.65-.78a1.22,1.22,0,0,1,.94-.39c.47,0,.79.06.94.28s.31.3.47.22.31.08.47.45q.24.23,0,.67l-.83,1.23-1.36,1.46a14.44,14.44,0,0,1-1.12,1.06q-.59.5-1.24,1t-1.71,1.18L708.72,136a14.91,14.91,0,0,1-1.53,1q-1.3.67-2.3,1.23a9.64,9.64,0,0,1-2.3.9,21.81,21.81,0,0,1-5.6.78,12.11,12.11,0,0,1-5.25-1.23,1.51,1.51,0,0,1-.41-.28,1.61,1.61,0,0,0-.41-.28,9.13,9.13,0,0,1-3-2.8,11.32,11.32,0,0,1-1.48-3.7q-.24-.9-.47-1.68t-.47-1.68a5.69,5.69,0,0,0-.29-.84,4.56,4.56,0,0,0-.41-.73.62.62,0,0,0-.94-.22l-.71.34a23.37,23.37,0,0,1-2.07,1.57,7.46,7.46,0,0,0-1.71,1.57,15.25,15.25,0,0,1-1.47,1.63,12.3,12.3,0,0,0-1.36,1.51q-1.06,1.35-2,2.63t-1.89,2.75a4.33,4.33,0,0,1-.65,1.06,10.66,10.66,0,0,0-.77,1.06,1.69,1.69,0,0,1-.53.5,2.74,2.74,0,0,0-.53.39.79.79,0,0,1-.94.22,7.82,7.82,0,0,0-1.12-.34,2.07,2.07,0,0,1-1-.56l-.71-.45A2.15,2.15,0,0,1,665.3,138a2.6,2.6,0,0,1,.12-.73c.08-.26.16-.5.24-.73q.24-1.34.53-2.75a14.12,14.12,0,0,1,.88-2.75q.47-1.57.94-3a17.7,17.7,0,0,1,1.18-2.8q1.3-3.25,2.54-6.45t2.54-6.45a23.58,23.58,0,0,0,1.06-2.63q.47-1.4.94-2.63.59-1.57,1-3a28.06,28.06,0,0,1,1-2.91q.59-1.91,1.18-3.92t1.18-3.92q.47-1.68,1-3.36t1.12-3.36a19.1,19.1,0,0,1,.35-2.19,10.67,10.67,0,0,0,.24-2.3,4.74,4.74,0,0,1,.06-1.68q.18-.78.29-1.68a.76.76,0,0,1,.71-.45,1.68,1.68,0,0,1,1.06.22l.94.78a3.38,3.38,0,0,1,1.18,1.29A1.53,1.53,0,0,1,687.72,81.81Z"/><path class="cls-1" d="M744.48,143.35a7.8,7.8,0,0,1-2.66-.9,11.38,11.38,0,0,1-2.18-2,5.24,5.24,0,0,1-1.18-2.07,22,22,0,0,1-.59-2.52,21.38,21.38,0,0,1-.35-2.24,11.56,11.56,0,0,1,0-2.35l.47-3.48-.12-.22v-.11h-.35q-.95,1.12-2.24,2.47T733,132.37a1.67,1.67,0,0,1-.41.45,2.88,2.88,0,0,0-.41.34l-1.53,1.35a13.92,13.92,0,0,1-2.95,2.47,7.57,7.57,0,0,0-1.18.84,3.6,3.6,0,0,1-1.42.73,6,6,0,0,1-3.3-.22,14.05,14.05,0,0,1-1.47-.78,5.41,5.41,0,0,1-1.12-1,2.35,2.35,0,0,1-.71-1.57v-1.23a9.93,9.93,0,0,1,.12-1.46q.35-1.57,1.12-4a26.77,26.77,0,0,0,1-4,1.27,1.27,0,0,1,.65-.62.57.57,0,0,1,.65.06l2.24,1.68a.9.9,0,0,1,.41.67,6.94,6.94,0,0,1,.06.9l-.12.9q-.24.56-.53,1.46t-.53,1.91q-.24,1-.53,1.91a11.23,11.23,0,0,0-.41,1.57.49.49,0,0,0-.06.39,1.19,1.19,0,0,1,.06.39c0,.22.16.34.47.34a1.36,1.36,0,0,0,.59-.11l1.89-1.23,1.42-1.12a9.94,9.94,0,0,0,1.3-1.23q.59-.56,1.3-1.18t1.3-1.18a15.41,15.41,0,0,1,1.18-1.4q.59-.62,1.18-1.18a10.67,10.67,0,0,0,1.89-2.24q1.06-1.57,1.65-2.35l2.12-2.13a1.72,1.72,0,0,1,1.89-.45,10.67,10.67,0,0,1,1.12.5,4.62,4.62,0,0,1,1,.73,2.38,2.38,0,0,1,.59,1.23,6.91,6.91,0,0,1-.24,2.47,17.5,17.5,0,0,0-.94,2.75q-.47,1.74-.71,2.63a14.37,14.37,0,0,0-.53,2.58,11.16,11.16,0,0,0,.06,3,4.49,4.49,0,0,0,.18.9,5,5,0,0,0,.29.9,6.64,6.64,0,0,0,1.3,2.75,2.78,2.78,0,0,0,2.71,1,13.29,13.29,0,0,0,2.48-.67q1.18-.45,2.36-1,.94-.56,2.3-1.46l2.18-1.46q2.24-1.79,3.83-3.19t3.13-3a3.71,3.71,0,0,1,1.12-1.06,7.28,7.28,0,0,0,1.24-1q.59-.78,1.47,0t.41,1.57a22.54,22.54,0,0,0-1.65,2,7.45,7.45,0,0,1-1.89,1.74l-2.48,2.24a45.48,45.48,0,0,1-4.9,3.87,28.81,28.81,0,0,1-3.83,2.07,13.4,13.4,0,0,1-3.3,1.29A8.08,8.08,0,0,1,744.48,143.35Z"/><path class="cls-1" d="M789.31,123a.76.76,0,0,1-.06.34.73.73,0,0,0-.06.34.36.36,0,0,1-.24.34q-.24.11-.35,0a.34.34,0,0,1-.24-.11,2.44,2.44,0,0,0-1.3-.5,7.31,7.31,0,0,0-1.53.06q-1.77.45-3.6,1a18.9,18.9,0,0,0-3.48,1.46,10.86,10.86,0,0,0-2.36,1.46c-.47.37-.39.67.24.9a1.84,1.84,0,0,0,.71.22q.71.23,1.42.39l1.53.39a18.67,18.67,0,0,1,2.07.56l2.07.67a5.39,5.39,0,0,0,1.3.39,3.35,3.35,0,0,1,1.3.62,2.18,2.18,0,0,0,1.42.34q1.89-.45,4-.78a10.45,10.45,0,0,1,1.36-.34l1.47-.22a8.57,8.57,0,0,0,1.42-.22q1.06-.22,2.24-.5l2.24-.5a8.76,8.76,0,0,1,1.42-.22,2.32,2.32,0,0,0,.71-.11,2.36,2.36,0,0,1,.71-.11q.59-.34.71-.11l1.89-.28q1.18-.17,1.42.39.71.56.47,1a1.56,1.56,0,0,1-.83.62,6.3,6.3,0,0,1-1.36.34,8.94,8.94,0,0,1-1.24.11,5.66,5.66,0,0,0-1.59.22l-1.48.45L795,132.93q-1.06.23-2.83.73a6.57,6.57,0,0,0-2.12.84c-.24.15-.22.39.06.73a3.08,3.08,0,0,1,.53.84,1.59,1.59,0,0,1,.18.84,3.54,3.54,0,0,0-.06.73,5.14,5.14,0,0,1-1.89,3.92,13.41,13.41,0,0,1-2.3,2.13q-1.24.9-2.54,1.79a31,31,0,0,1-2.89,1.63,30,30,0,0,1-3,1.29.69.69,0,0,1-.47.22,20.82,20.82,0,0,0-2.42.56,8,8,0,0,1-2.3.34,1.4,1.4,0,0,0-.59.11,1.08,1.08,0,0,1-.47.11,6.38,6.38,0,0,1-1.89-.06,4.53,4.53,0,0,1-1.77-.73,2.85,2.85,0,0,1-.88-.73,4.57,4.57,0,0,1-.53-1l-.35-1.68a.74.74,0,0,1,.24-.56,6.7,6.7,0,0,1,1.65-2.69q1.3-1.12,2.54-2.07a21.4,21.4,0,0,1,2.66-1.74,7.37,7.37,0,0,0,1.3-.78,4.11,4.11,0,0,1,1.42-.67,1,1,0,0,1,.35-.11.35.35,0,0,0,.24-.11q1.65-.9,3.36-1.68a35.54,35.54,0,0,1,3.36-1.35c.16,0,.24-.07.24-.22s-.12-.06-.12.06,0,.13-.12.06q-1.06-.34-2.18-.73a18,18,0,0,0-2.18-.62l-2.24-.56a4.77,4.77,0,0,1-1.65-.56,3.66,3.66,0,0,1-2.6-3.48,3,3,0,0,1,1.06-3c.24-.22.47-.43.71-.62s.47-.35.71-.5a15.14,15.14,0,0,1,2.77-1.51l2.89-1.18a31.25,31.25,0,0,1,4.84-1.23,2.78,2.78,0,0,0,.53-.06,2.91,2.91,0,0,1,.53-.06,1.63,1.63,0,0,1,1.89.9,1.84,1.84,0,0,0,.24.56A1.79,1.79,0,0,1,789.31,123Zm-18.64,23.88a6.25,6.25,0,0,0,1.18-.11l1.18-.22a27,27,0,0,0,5-1.57l1.18-.67a8.44,8.44,0,0,1,1.18-.56l.83-.56,3-1.91a17.6,17.6,0,0,0,3.3-3,.81.81,0,0,0,.24-.62,1.33,1.33,0,0,1,.12-.62c.16-.15.18-.19.06-.11s-.1,0,.06-.11a1.91,1.91,0,0,0-.35-.79q-.35-.56-.59-.45a24.31,24.31,0,0,0-2.83,1.23q-1.3.67-2.83,1.35a4.71,4.71,0,0,0-1.12.62,4.64,4.64,0,0,1-1.12.62l-.71.34L775.86,141a1.47,1.47,0,0,1-.59.34,1.51,1.51,0,0,0-.59.34c-.47.38-1,.73-1.47,1.06s-1,.69-1.48,1.06a8.52,8.52,0,0,0-2.36,2.58l.12.22A7.35,7.35,0,0,0,770.67,146.83Z"/><path class="cls-1" d="M819.17,142.23q-1.3-.22-2.66-.39a4.34,4.34,0,0,1-2.3-1,23.42,23.42,0,0,1-2.42-2.69,4.23,4.23,0,0,1-.88-3.25c0-.15,0-.47.06-1a1.56,1.56,0,0,1,.29-1l.24-.67q.59-1.35.83-1.79t1.06-1.68a24.22,24.22,0,0,1,5.19-5.38A18.83,18.83,0,0,1,820.7,122a26.9,26.9,0,0,1,2.6-1.4,2.09,2.09,0,0,0,.94-.34,2.54,2.54,0,0,1,1.95.11,5.7,5.7,0,0,1,1.59,1l.47,1.12a4.81,4.81,0,0,1-1.42,4.37,38.26,38.26,0,0,1-2.77,2.8q-1.48,1.35-3.13,2.58a3.08,3.08,0,0,1-.65.45,3.11,3.11,0,0,0-.65.45,1.46,1.46,0,0,1-.88.39c-.35,0-.73.09-1.12.17a1.14,1.14,0,0,1-1.65-.34l-.47-.34h-.24c-.08,0-.12,0-.12.11a3.22,3.22,0,0,0-.65,1.79c0,.67-.06,1.27-.06,1.79a2.56,2.56,0,0,0,.83,1.23,2.5,2.5,0,0,0,1.12.78,3.74,3.74,0,0,0,1.24.22,5.85,5.85,0,0,0,1.3.11A17.78,17.78,0,0,1,821,139a6.45,6.45,0,0,0,2.3-.45,50.91,50.91,0,0,0,7.91-2.47q3.54-1.46,7.2-3,1.89-.9,3.48-1.74t3.25-1.63q1.06-.56,1.3-.73l1.42-1q.59-.56.65-.5a3.06,3.06,0,0,0,1-.28c.16-.15.22-.17.18-.06a.8.8,0,0,0,.06.5c.08.3.18.66.29,1.07a.8.8,0,0,1-.29,1q-.83.79-.71.84c.08,0-.16.28-.71.73a29.47,29.47,0,0,1-3.54,2.13q-1.77.9-3.66,2-1.3.56-2.42,1.12t-2.18,1q-2.36.9-4.78,1.85a32.15,32.15,0,0,1-5,1.51l-3.42.9a12.56,12.56,0,0,1-2,.39Q820.58,142.23,819.17,142.23Zm-1.53-12a21.35,21.35,0,0,0,3.78-2.69,37.21,37.21,0,0,0,3.42-3.48.55.55,0,0,0-.24.06.53.53,0,0,1-.24.06,15.86,15.86,0,0,0-3.83,2.13,8.9,8.9,0,0,0-2.54,3.14C817.91,129.45,817.79,129.72,817.63,130.24Z"/><path class="cls-1" d="M857.87,123.29a9.74,9.74,0,0,1,.29-1.23q.18-.56.29-1.12c0,.08.08-.13.24-.62s.35-1.1.59-1.85.47-1.51.71-2.3a16.4,16.4,0,0,1,.71-2,10.41,10.41,0,0,0,.71-1.74,10.22,10.22,0,0,1,.71-1.74,9.75,9.75,0,0,0,.59-1q.35-.67.71-1.46c.24-.52.43-1,.59-1.46a3.43,3.43,0,0,0,.24-1l-.12.11H864c-.16-.15-.28-.11-.35.11l-2.12.67-3.3,1.12a2.94,2.94,0,0,1-.77.22h-.24a.47.47,0,0,0-.18.06l-.59.28a9.57,9.57,0,0,1-1.36.39l-1.71.39a1.83,1.83,0,0,1-1.06-.45q-.47-.22-.18-.73c.2-.34.26-.54.18-.62l-.12-.11c-.08-.52.06-.82.41-.9a5,5,0,0,1,1-.11l2.36-.78a2,2,0,0,0,.24-.28c.08-.11.24-.09.47.06a6.86,6.86,0,0,1,1.53-.56,1.88,1.88,0,0,1,.71-.22,4.58,4.58,0,0,1,1.47-.62q.77-.17,1.48-.28l.47-.22a1.11,1.11,0,0,1,.47-.11,7.06,7.06,0,0,0,1.06-.28l1.06-.39c.55-.22.83-.41.83-.56a.32.32,0,0,1,.12-.22v-.11l.71-1.68,5.19-12.56a3.61,3.61,0,0,0,.24-.62,9.21,9.21,0,0,1,.35-1l.35-.56q.24-.56,1.42-.56a2.92,2.92,0,0,1,1.77.45l.29.56a6,6,0,0,0,.41.67,3.54,3.54,0,0,1,.24.67.9.9,0,0,1-.12.78,64.71,64.71,0,0,0-3.42,6.5q-1.42,3.14-3.07,6.61c-.16.15-.14.21.06.17a.47.47,0,0,1,.41.06q2.48-.56,3.83-.78t3.6-.78a3,3,0,0,0,1.3-.28,1.21,1.21,0,0,1,1.18.06,1,1,0,0,1,.59-.06.65.65,0,0,0,.59-.17,3,3,0,0,1,2.12.11.88.88,0,0,1,.71-.11,1.58,1.58,0,0,1,1.36-.06,3.67,3.67,0,0,0,1.47.28q.24-.11.18.11c0,.15,0,.22.06.22.24,0,.37.06.41.17s0,.17-.18.17c-.39.15-.55.32-.47.5s.08.28,0,.28a10.8,10.8,0,0,1-1.77.28,6.68,6.68,0,0,0-1.77.39,10.89,10.89,0,0,0-1.12.06,4.58,4.58,0,0,0-1.12.28l-.47.22a8.12,8.12,0,0,0-2.77.28,28.31,28.31,0,0,1-2.89.62q-.71.23-1.12.39l-1,.39-2,.34-1.77.56c-.4,0-.61.08-.65.22a1,1,0,0,1-.29.45,3.54,3.54,0,0,0-.41.9q-.3.79-.59,1.68a16.87,16.87,0,0,1-.65,1.68c-.24.52-.39.86-.47,1q-1.42,3.93-2.83,7.4a73,73,0,0,0-2.48,7.12,71.66,71.66,0,0,0-1.77,7.68,52.14,52.14,0,0,0-.71,9q0,2.69.12,3.87a6.85,6.85,0,0,0,.29,1.63,1.19,1.19,0,0,0,.35.56,1.56,1.56,0,0,1,.41.56,2.79,2.79,0,0,1,1.24.5,1.61,1.61,0,0,1,.65.84.83.83,0,0,1-.29.84A2.37,2.37,0,0,1,860,151a.68.68,0,0,1-.47-.22,10.93,10.93,0,0,1-2.07-.84,3.29,3.29,0,0,1-.88-1.4,9.46,9.46,0,0,1-1.12-4.26q-.18-2.69-.18-4.71l.24-4.15a7.07,7.07,0,0,1,.12-1.57q.12-.45.35-1.57a33.43,33.43,0,0,1,.65-4,40.5,40.5,0,0,1,1-4Z"/><path class="cls-2" d="M56.66,165.81s0,0,0-.07,0,0,0-.07Z"/><path class="cls-2" d="M152.51,165.61s0,.07,0,.11,0,0,0,.05Z"/><path class="cls-2" d="M144.84,169H150a2.41,2.41,0,0,0,2.51-2.63A2.19,2.19,0,0,0,150,164h-6L126.8,37h-7l3.49,27.37L137,164H108V37h3V28h-3V0h-7V28H98v9h3V164H73.16l13.7-99.63L90.36,37h-7L66.13,164H59.67c-1.6,0-3,.82-3,2.4a2.79,2.79,0,0,0,3,2.6h5.66L52.42,265h6.86l5.82-42H101v23h7V223h37.08l5.83,42h6.86ZM101,215H66.05l6.3-46H101Zm7,0V169h29.83l6.29,46Z"/><rect class="cls-3" x="0.5" y="36.55" width="209.17" height="126.78"/></g></g></svg>